<?xml version="1.0" encoding="UTF-8"?>
<svg id="svg6" width="128" height="128" role="img" version="1.1" viewBox="0 0 128 128" xmlns="http://www.w3.org/2000/svg" xmlns:cc="http://creativecommons.org/ns#" xmlns:dc="http://purl.org/dc/elements/1.1/" xmlns:rdf="http://www.w3.org/1999/02/22-rdf-syntax-ns#">
 <title id="title2">Flatpak</title>
 <g id="g795" transform="matrix(5.3051 0 0 5.3051 .33906 .33942)">
  <g id="g854">
   <path id="path4" d="m12 0c-0.556 0-1.111 0.144-1.61 0.432l-7.603 4.39a3.217 3.217 0 0 0-1.61 2.788v8.78c0 1.151 0.612 2.212 1.61 2.788l7.603 4.39a3.217 3.217 0 0 0 3.22 0l7.603-4.39a3.217 3.217 0 0 0 1.61-2.788v-8.78a3.217 3.217 0 0 0-1.61-2.788l-7.603-4.39a3.218 3.218 0 0 0-1.61-0.432zm0 2.358c0.15 0 0.299 0.039 0.431 0.115l7.604 4.39c0.132 0.077 0.24 0.187 0.315 0.316l-8.35 4.821v9.642a0.863 0.863 0 0 1-0.431-0.116l-7.604-4.39a0.866 0.866 0 0 1-0.431-0.746v-8.78c0-0.153 0.041-0.302 0.116-0.43l8.35 4.82z"/>
   <path id="path282" d="m19.262 9.9243c0.03351-0.0032 0.06499-8.07e-4 0.0957 0.0039 0.03072 0.0047 0.06108 0.01324 0.08789 0.02539s0.05049 0.02779 0.07227 0.04688c0.02178 0.01908 0.041 0.0409 0.05664 0.06641 0.01564 0.0255 0.02873 0.05451 0.03711 0.08594 0.0084 0.03142 0.01172 0.06473 0.01172 0.10156v0.88476l2.002-1.1562c0.0198-0.01143 0.03995-0.02049 0.05859-0.02734 0.01865-0.0069 0.03562-0.01123 0.05273-0.01367 0.01712-0.0024 0.03362-0.0018 0.04883 0s0.03005 0.0039 0.04297 0.0098 0.0249 0.01369 0.03516 0.02344c0.01026 0.0098 0.01817 0.02168 0.02539 0.03516 0.0072 0.01347 0.01378 0.02985 0.01758 0.04687 0.0038 0.01703 0.0039 0.03623 0.0039 0.05664v0.58789c0 0.02041-1.1e-4 0.04109-0.0039 0.0625-0.0038 0.02141-0.01036 0.0446-0.01758 0.06641-0.0072 0.02181-0.01513 0.04286-0.02539 0.06445s-0.02224 0.04368-0.03516 0.06445c-0.01292 0.02078-0.02776 0.0412-0.04297 0.06055s-0.03171 0.03737-0.04883 0.05469-0.03409 0.03415-0.05273 0.04883c-0.01865 0.01468-0.03879 0.02763-0.05859 0.03906l-0.85742 0.49414v5.5996c0 0.03683-0.0053 0.07609-0.01367 0.11719-0.0084 0.0411-0.01952 0.08339-0.03516 0.12695-0.01564 0.04356-0.03486 0.08858-0.05664 0.13281-0.02178 0.04423-0.04741 0.08776-0.07422 0.13086-0.02681 0.0431-0.05522 0.08482-0.08594 0.125s-0.0622 0.07977-0.0957 0.11524c-0.03351 0.03546-0.06833 0.06676-0.10352 0.0957-0.03518 0.02895-0.07168 0.05554-0.10742 0.07617l-5.1465 2.9707c-0.03574 0.02063-0.07224 0.03715-0.10742 0.04883-0.03518 0.01168-0.07001 0.01825-0.10352 0.02148-0.03351 0.0032-0.06499 0.0028-0.0957-2e-3 -0.03072-0.0047-0.05913-0.01324-0.08594-0.02539s-0.05244-0.02779-0.07422-0.04687-0.041-0.0409-0.05664-0.06641-0.02678-0.05451-0.03516-0.08594c-0.0084-0.03142-0.01367-0.06668-0.01367-0.10352v-5.5976l-0.85742 0.49414c-0.0198 0.01143-0.03995 0.02049-0.05859 0.02734-0.01865 0.0069-0.03562 0.01123-0.05273 0.01367-0.01712 0.0024-0.03362 0.0037-0.04883 2e-3 -0.01521-0.0018-0.03005-0.0059-0.04297-0.01172-0.01292-0.0059-0.0249-0.01369-0.03516-0.02344-0.01026-0.0098-0.01818-0.02168-0.02539-0.03516-0.0072-0.01347-0.01183-0.0279-0.01563-0.04492-0.0038-0.01703-0.0059-0.03623-0.0059-0.05664v-0.58984c0-0.02041 0.0021-0.04109 0.0059-0.0625s0.0084-0.04265 0.01563-0.06445c0.0072-0.02181 0.01513-0.04481 0.02539-0.06641 0.01026-0.02159 0.02224-0.04172 0.03516-0.0625s0.02776-0.0412 0.04297-0.06055 0.03171-0.03737 0.04883-0.05469 0.03409-0.03415 0.05273-0.04883c0.01865-0.01468 0.03879-0.02763 0.05859-0.03906l2.002-1.1562v-0.88281c0-0.03683 0.0033-0.07804 0.01172-0.11914 0.0084-0.0411 0.02147-0.08339 0.03711-0.12695 0.01564-0.04356 0.03486-0.08663 0.05664-0.13086 0.02178-0.04423 0.04546-0.08971 0.07227-0.13281 0.02681-0.0431 0.05718-0.08482 0.08789-0.125 0.03072-0.04018 0.06219-0.07782 0.0957-0.11328 0.03351-0.03546 0.06833-0.06871 0.10352-0.09766 0.03518-0.02895 0.07168-0.05358 0.10742-0.07422l2.8574-1.6504c0.03574-0.02064 0.07224-0.03715 0.10742-0.04883 0.03518-0.01168 0.07001-0.02021 0.10352-0.02344z" fill="#7f7f7f" stroke-linecap="square" stroke-linejoin="round" stroke-width="2.5404"/>
   <path id="path6" d="m18.634 11.16c-0.01677 0.0016-0.0351 0.0059-0.05273 0.01172-0.01763 0.0058-0.03479 0.01308-0.05273 0.02344l-1.7168 0.99023c-0.01786 0.01031-0.03515 0.02265-0.05273 0.03711-0.01759 0.01446-0.03403 0.03112-0.05078 0.04883s-0.03347 0.03657-0.04883 0.05664-0.02956 0.04096-0.04297 0.0625c-0.0134 0.02154-0.02622 0.04429-0.03711 0.06641-0.01089 0.02211-0.02148 0.04461-0.0293 0.06641-0.0078 0.02179-0.01339 0.04387-0.01758 0.06445-0.0042 0.02058-0.0059 0.04012-0.0059 0.05859v0.29492l2.2871-1.3223v-0.29297c0-0.01829-0.0017-0.03708-0.0059-0.05273s-0.0098-0.02827-0.01758-0.04102c-0.0078-0.01274-0.01843-0.02559-0.0293-0.03516-0.01086-0.0096-0.02372-0.01732-0.03711-0.02344-0.01338-0.0061-0.02762-0.0093-0.04297-0.01172-0.01535-0.0024-0.03011-0.0035-0.04687-2e-3zm1.0371 1.1426-4.002 2.3125v5.0098l4.002-2.3125zm-1.082 1.5625c0.01201-3.63e-4 0.02375 6.53e-4 0.03516 2e-3 0.02281 0.0027 0.04507 0.0088 0.06445 0.01758 0.01938 0.0088 0.03735 0.02053 0.05273 0.03516 0.01539 0.01463 0.02824 0.03252 0.03906 0.05273s0.0197 0.04282 0.02539 0.06836c0.0057 0.02554 0.0078 0.05337 0.0078 0.08398v2.3574c0 0.03061-0.0021 0.06164-0.0078 0.09375s-0.01457 0.06495-0.02539 0.09766-0.02368 0.06527-0.03906 0.09766-0.03336 0.06454-0.05273 0.0957c-0.01938 0.03116-0.04164 0.06082-0.06445 0.08984-0.02281 0.02903-0.04659 0.05801-0.07227 0.08398-0.02567 0.02598-0.05211 0.05025-0.08008 0.07227s-0.05819 0.04144-0.08789 0.05859-0.05797 0.03074-0.08594 0.04102-0.0544 0.01782-0.08008 0.02148c-0.02567 0.0037-0.04946 0.0027-0.07227 0s-0.04507-0.0068-0.06445-0.01563c-0.01938-0.0088-0.03735-0.02053-0.05273-0.03516-0.01539-0.01463-0.02824-0.03252-0.03906-0.05273s-0.0197-0.04282-0.02539-0.06836c-0.0057-0.02554-0.0078-0.05533-0.0078-0.08594v-2.3575c0-0.03061 0.0021-0.06164 0.0078-0.09375s0.01457-0.06495 0.02539-0.09766 0.02368-0.06527 0.03906-0.09766 0.03336-0.06454 0.05273-0.0957c0.01938-0.03116 0.04164-0.06082 0.06445-0.08984 0.02281-0.02903 0.04659-0.05606 0.07227-0.08203 0.02567-0.02598 0.05211-0.05025 0.08008-0.07227s0.05624-0.0434 0.08594-0.06055 0.05992-0.03074 0.08789-0.04102 0.0544-0.01586 0.08008-0.01953c0.01284-0.0019 0.0251-0.0035 0.03711-0.0039zm-1.4297 0.82617c0.01201 1.25e-4 0.02375 6.03e-4 0.03516 2e-3 0.02281 0.0027 0.04507 0.0068 0.06445 0.01563 0.01938 0.0088 0.03735 0.02053 0.05273 0.03516s0.02824 0.03252 0.03906 0.05273 0.0197 0.04282 0.02539 0.06836c0.0057 0.02554 0.0078 0.05337 0.0078 0.08398v2.3594c0 0.03061-0.0021 0.06164-0.0078 0.09375s-0.01457 0.06495-0.02539 0.09766-0.02368 0.06527-0.03906 0.09766c-0.01539 0.03239-0.03335 0.06454-0.05273 0.0957s-0.04164 0.06082-0.06445 0.08984c-0.02281 0.02903-0.04659 0.05605-0.07227 0.08203-0.02567 0.02598-0.05211 0.05025-0.08008 0.07227s-0.05624 0.0434-0.08594 0.06055-0.05992 0.03074-0.08789 0.04102-0.0544 0.01586-0.08008 0.01953c-0.02567 0.0037-0.04946 0.0046-0.07227 2e-3 -0.02281-0.0027-0.04507-0.0088-0.06445-0.01758-0.01938-0.0088-0.03735-0.02053-0.05273-0.03516s-0.02824-0.03252-0.03906-0.05273-0.0197-0.04282-0.02539-0.06836c-0.0057-0.02554-0.0078-0.05337-0.0078-0.08398v-2.3574c0-0.03061 0.0021-0.06164 0.0078-0.09375s0.01457-0.06495 0.02539-0.09766 0.02368-0.06527 0.03906-0.09766c0.01539-0.03239 0.03335-0.06454 0.05273-0.0957s0.04164-0.06277 0.06445-0.0918 0.04659-0.05605 0.07227-0.08203c0.02567-0.02598 0.05211-0.05025 0.08008-0.07227s0.05819-0.04144 0.08789-0.05859 0.05797-0.03074 0.08594-0.04102 0.0544-0.01782 0.08008-0.02148c0.01283-0.0019 0.0251-0.0021 0.03711-2e-3z" stroke-linecap="square" stroke-linejoin="round" stroke-width="2.5404"/>
  </g>
 </g>
 <metadata id="metadata790">
  <rdf:RDF>
   <cc:Work rdf:about="">
    <dc:title>Flatpak</dc:title>
   </cc:Work>
  </rdf:RDF>
 </metadata>
</svg>
