<?xml version="1.0" encoding="UTF-8" standalone="no"?>
<svg
   role="img"
   viewBox="0 0 24 24"
   version="1.1"
   id="svg6"
   sodipodi:docname="flatpak_logo_icon_248537.svg"
   inkscape:version="1.2.2 (b0a8486541, 2022-12-01)"
   xmlns:inkscape="http://www.inkscape.org/namespaces/inkscape"
   xmlns:sodipodi="http://sodipodi.sourceforge.net/DTD/sodipodi-0.dtd"
   xmlns="http://www.w3.org/2000/svg"
   xmlns:svg="http://www.w3.org/2000/svg">
  <defs
     id="defs10" />
  <sodipodi:namedview
     id="namedview8"
     pagecolor="#ffffff"
     bordercolor="#000000"
     borderopacity="0.25"
     inkscape:showpageshadow="2"
     inkscape:pageopacity="0.0"
     inkscape:pagecheckerboard="0"
     inkscape:deskcolor="#d1d1d1"
     showgrid="false"
     inkscape:zoom="24.689812"
     inkscape:cx="3.6047257"
     inkscape:cy="14.337898"
     inkscape:window-width="1920"
     inkscape:window-height="1008"
     inkscape:window-x="0"
     inkscape:window-y="0"
     inkscape:window-maximized="1"
     inkscape:current-layer="svg6" />
  <title
     id="title2">Flatpak</title>
  <path
     d="M12 0c-.556 0-1.111.144-1.61.432l-7.603 4.39a3.217 3.217 0 0 0-1.61 2.788v8.78c0 1.151.612 2.212 1.61 2.788l7.603 4.39a3.217 3.217 0 0 0 3.22 0l7.603-4.39a3.217 3.217 0 0 0 1.61-2.788V7.61a3.217 3.217 0 0 0-1.61-2.788L13.61.432A3.218 3.218 0 0 0 12 0Zm0 2.358c.15 0 .299.039.431.115l7.604 4.39c.132.077.24.187.315.316L12 12v9.642a.863.863 0 0 1-.431-.116l-7.604-4.39a.866.866 0 0 1-.431-.746V7.61c0-.153.041-.302.116-.43L12 12Z"
     id="path4" />
  <path
     d="m 19.262237,9.9242924 c 0.03351,-0.0032 0.06499,-8.07e-4 0.0957,0.0039 0.03072,0.0047 0.06108,0.01324 0.08789,0.02539 0.02681,0.01215 0.05049,0.02779 0.07227,0.04688 0.02178,0.01908 0.041,0.0409 0.05664,0.06641 0.01564,0.0255 0.02873,0.05451 0.03711,0.08594 0.0084,0.03142 0.01172,0.06473 0.01172,0.101563 V 11.13914 L 21.62552,9.9828904 c 0.0198,-0.01143 0.03995,-0.02049 0.05859,-0.02734 0.01865,-0.0069 0.03562,-0.01123 0.05273,-0.01367 0.01712,-0.0024 0.03362,-0.0018 0.04883,0 0.01521,0.0018 0.03005,0.0039 0.04297,0.0098 0.01292,0.0059 0.0249,0.01369 0.03516,0.02344 0.01026,0.0098 0.01817,0.02168 0.02539,0.03516 0.0072,0.01347 0.01378,0.02985 0.01758,0.04687 0.0038,0.01703 0.0039,0.03623 0.0039,0.05664 v 0.58789 c 0,0.02041 -1.1e-4,0.04109 -0.0039,0.0625 -0.0038,0.02141 -0.01036,0.0446 -0.01758,0.06641 -0.0072,0.02181 -0.01513,0.04286 -0.02539,0.06445 -0.01026,0.02159 -0.02224,0.04368 -0.03516,0.06445 -0.01292,0.02078 -0.02776,0.0412 -0.04297,0.06055 -0.01521,0.01935 -0.03171,0.03737 -0.04883,0.05469 -0.01712,0.01732 -0.03409,0.03415 -0.05273,0.04883 -0.01865,0.01468 -0.03879,0.02763 -0.05859,0.03906 l -0.857422,0.494141 v 5.599609 c 0,0.03683 -0.0053,0.07609 -0.01367,0.117187 -0.0084,0.0411 -0.01952,0.08339 -0.03516,0.126954 -0.01564,0.04356 -0.03486,0.08858 -0.05664,0.132812 -0.02178,0.04423 -0.04741,0.08776 -0.07422,0.130859 -0.02681,0.0431 -0.05522,0.08482 -0.08594,0.125 -0.03072,0.04018 -0.0622,0.07977 -0.0957,0.115235 -0.03351,0.03546 -0.06833,0.06676 -0.103515,0.0957 -0.03518,0.02895 -0.07168,0.05554 -0.107422,0.07617 l -5.146485,2.970703 c -0.03574,0.02063 -0.07224,0.03715 -0.107421,0.04883 -0.03518,0.01168 -0.07001,0.01825 -0.103516,0.02148 -0.03351,0.0032 -0.06499,0.0028 -0.0957,-0.002 -0.03072,-0.0047 -0.05913,-0.01324 -0.08594,-0.02539 -0.02681,-0.01215 -0.05244,-0.02779 -0.07422,-0.04687 -0.02178,-0.01908 -0.041,-0.0409 -0.05664,-0.06641 -0.01564,-0.02551 -0.02678,-0.05451 -0.03516,-0.08594 -0.0084,-0.03142 -0.01367,-0.06668 -0.01367,-0.103516 v -5.597648 l -0.857422,0.494141 c -0.0198,0.01143 -0.03995,0.02049 -0.05859,0.02734 -0.01865,0.0069 -0.03562,0.01123 -0.05273,0.01367 -0.01712,0.0024 -0.03362,0.0037 -0.04883,0.002 -0.01521,-0.0018 -0.03005,-0.0059 -0.04297,-0.01172 -0.01292,-0.0059 -0.0249,-0.01369 -0.03516,-0.02344 -0.01026,-0.0098 -0.01818,-0.02168 -0.02539,-0.03516 -0.0072,-0.01347 -0.01183,-0.0279 -0.01563,-0.04492 -0.0038,-0.01703 -0.0059,-0.03623 -0.0059,-0.05664 v -0.589843 c 0,-0.02041 0.0021,-0.04109 0.0059,-0.0625 0.0038,-0.02141 0.0084,-0.04265 0.01563,-0.06445 0.0072,-0.02181 0.01513,-0.04481 0.02539,-0.06641 0.01026,-0.02159 0.02224,-0.04172 0.03516,-0.0625 0.01292,-0.02078 0.02776,-0.0412 0.04297,-0.06055 0.01521,-0.01935 0.03171,-0.03737 0.04883,-0.05469 0.01712,-0.01732 0.03409,-0.03415 0.05273,-0.04883 0.01865,-0.01468 0.03879,-0.02763 0.05859,-0.03906 l 2.001953,-1.15625 v -0.882812 c 0,-0.03683 0.0033,-0.07804 0.01172,-0.119141 0.0084,-0.0411 0.02147,-0.08339 0.03711,-0.126953 0.01564,-0.04356 0.03486,-0.08663 0.05664,-0.130859 0.02178,-0.04423 0.04546,-0.08971 0.07227,-0.132813 0.02681,-0.0431 0.05718,-0.08482 0.08789,-0.125 0.03072,-0.04018 0.06219,-0.07782 0.0957,-0.113281 0.03351,-0.03546 0.06833,-0.06871 0.103516,-0.09766 0.03518,-0.02895 0.07168,-0.05358 0.107422,-0.07422 L 19.0513,9.9965844 c 0.03574,-0.02064 0.07224,-0.03715 0.107422,-0.04883 0.03518,-0.01168 0.07001,-0.02021 0.103515,-0.02344 z"
     style="display:inline;fill:#7f7f7f;stroke-width:2.54035;stroke-linecap:square;stroke-linejoin:round;fill-opacity:1"
     id="path282" />
  <path
     id="path6"
     style="display:inline;stroke-width:2.54035;stroke-linecap:square;stroke-linejoin:round"
     d="m 18.633761,11.159962 c -0.01677,0.0016 -0.0351,0.0059 -0.05273,0.01172 -0.01763,0.0058 -0.03479,0.01308 -0.05273,0.02344 l -1.716797,0.990234 c -0.01786,0.01031 -0.03515,0.02265 -0.05273,0.03711 -0.01759,0.01446 -0.03403,0.03112 -0.05078,0.04883 -0.01675,0.01771 -0.03347,0.03657 -0.04883,0.05664 -0.01536,0.02007 -0.02956,0.04096 -0.04297,0.0625 -0.0134,0.02154 -0.02622,0.04429 -0.03711,0.06641 -0.01089,0.02211 -0.02148,0.04461 -0.0293,0.06641 -0.0078,0.02179 -0.01339,0.04387 -0.01758,0.06445 -0.0042,0.02058 -0.0059,0.04012 -0.0059,0.05859 v 0.294922 l 2.287109,-1.322266 v -0.292969 c 0,-0.01829 -0.0017,-0.03708 -0.0059,-0.05273 -0.0042,-0.01565 -0.0098,-0.02827 -0.01758,-0.04102 -0.0078,-0.01274 -0.01843,-0.02559 -0.0293,-0.03516 -0.01086,-0.0096 -0.02372,-0.01732 -0.03711,-0.02344 -0.01338,-0.0061 -0.02762,-0.0093 -0.04297,-0.01172 -0.01535,-0.0024 -0.03011,-0.0035 -0.04687,-0.002 z m 1.037109,1.142578 -4.001953,2.3125 v 5.009765 l 4.001953,-2.3125 z m -1.082031,1.5625 c 0.01201,-3.63e-4 0.02375,6.53e-4 0.03516,0.002 0.02281,0.0027 0.04507,0.0088 0.06445,0.01758 0.01938,0.0088 0.03735,0.02053 0.05273,0.03516 0.01539,0.01463 0.02824,0.03252 0.03906,0.05273 0.01082,0.02021 0.0197,0.04282 0.02539,0.06836 0.0057,0.02554 0.0078,0.05337 0.0078,0.08398 v 2.357422 c 0,0.03061 -0.0021,0.06164 -0.0078,0.09375 -0.0057,0.03211 -0.01457,0.06495 -0.02539,0.09766 -0.01082,0.03271 -0.02368,0.06527 -0.03906,0.09766 -0.01538,0.03239 -0.03336,0.06454 -0.05273,0.0957 -0.01938,0.03116 -0.04164,0.06082 -0.06445,0.08984 -0.02281,0.02903 -0.04659,0.05801 -0.07227,0.08398 -0.02567,0.02598 -0.05211,0.05025 -0.08008,0.07227 -0.02797,0.02202 -0.05819,0.04144 -0.08789,0.05859 -0.0297,0.01715 -0.05797,0.03074 -0.08594,0.04102 -0.02797,0.01028 -0.0544,0.01782 -0.08008,0.02148 -0.02567,0.0037 -0.04946,0.0027 -0.07227,0 -0.02281,-0.0027 -0.04507,-0.0068 -0.06445,-0.01563 -0.01938,-0.0088 -0.03735,-0.02053 -0.05273,-0.03516 -0.01539,-0.01463 -0.02824,-0.03252 -0.03906,-0.05273 -0.01082,-0.02021 -0.0197,-0.04282 -0.02539,-0.06836 -0.0057,-0.02554 -0.0078,-0.05533 -0.0078,-0.08594 v -2.357456 c 0,-0.03061 0.0021,-0.06164 0.0078,-0.09375 0.0057,-0.03211 0.01457,-0.06495 0.02539,-0.09766 0.01082,-0.03271 0.02368,-0.06527 0.03906,-0.09766 0.01538,-0.03239 0.03336,-0.06454 0.05273,-0.0957 0.01938,-0.03116 0.04164,-0.06082 0.06445,-0.08984 0.02281,-0.02903 0.04659,-0.05606 0.07227,-0.08203 0.02567,-0.02598 0.05211,-0.05025 0.08008,-0.07227 0.02797,-0.02202 0.05624,-0.0434 0.08594,-0.06055 0.0297,-0.01715 0.05992,-0.03074 0.08789,-0.04102 0.02797,-0.01028 0.0544,-0.01586 0.08008,-0.01953 0.01284,-0.0019 0.0251,-0.0035 0.03711,-0.0039 z m -1.429688,0.826172 c 0.01201,1.25e-4 0.02375,6.03e-4 0.03516,0.002 0.02281,0.0027 0.04507,0.0068 0.06445,0.01563 0.01938,0.0088 0.03735,0.02053 0.05273,0.03516 0.01538,0.01463 0.02824,0.03252 0.03906,0.05273 0.01082,0.02021 0.0197,0.04282 0.02539,0.06836 0.0057,0.02554 0.0078,0.05337 0.0078,0.08398 v 2.359375 c 0,0.03061 -0.0021,0.06164 -0.0078,0.09375 -0.0057,0.03211 -0.01457,0.06495 -0.02539,0.09766 -0.01082,0.03271 -0.02368,0.06527 -0.03906,0.09766 -0.01539,0.03239 -0.03335,0.06454 -0.05273,0.0957 -0.01938,0.03116 -0.04164,0.06082 -0.06445,0.08984 -0.02281,0.02903 -0.04659,0.05605 -0.07227,0.08203 -0.02567,0.02598 -0.05211,0.05025 -0.08008,0.07227 -0.02797,0.02202 -0.05624,0.0434 -0.08594,0.06055 -0.0297,0.01715 -0.05992,0.03074 -0.08789,0.04102 -0.02797,0.01028 -0.0544,0.01586 -0.08008,0.01953 -0.02567,0.0037 -0.04946,0.0046 -0.07227,0.002 -0.02281,-0.0027 -0.04507,-0.0088 -0.06445,-0.01758 -0.01938,-0.0088 -0.03735,-0.02053 -0.05273,-0.03516 -0.01538,-0.01463 -0.02824,-0.03252 -0.03906,-0.05273 -0.01082,-0.02021 -0.0197,-0.04282 -0.02539,-0.06836 -0.0057,-0.02554 -0.0078,-0.05337 -0.0078,-0.08398 v -2.357422 c 0,-0.03061 0.0021,-0.06164 0.0078,-0.09375 0.0057,-0.03211 0.01457,-0.06495 0.02539,-0.09766 0.01082,-0.03271 0.02368,-0.06527 0.03906,-0.09766 0.01539,-0.03239 0.03335,-0.06454 0.05273,-0.0957 0.01938,-0.03116 0.04164,-0.06277 0.06445,-0.0918 0.02281,-0.02903 0.04659,-0.05605 0.07227,-0.08203 0.02567,-0.02598 0.05211,-0.05025 0.08008,-0.07227 0.02797,-0.02202 0.05819,-0.04144 0.08789,-0.05859 0.0297,-0.01715 0.05797,-0.03074 0.08594,-0.04102 0.02797,-0.01028 0.0544,-0.01782 0.08008,-0.02148 0.01283,-0.0019 0.0251,-0.0021 0.03711,-0.002 z" />
</svg>
